<svg width="7" height="4" viewBox="0 0 7 4" fill="none" xmlns="http://www.w3.org/2000/svg">
<path d="M7 0.570447C7 0.515465 6.97195 0.453608 6.92986 0.412372L6.57916 0.0687279C6.53708 0.0274913 6.47395 0 6.41784 0C6.36173 0 6.2986 0.0274913 6.25651 0.0687279L3.5 2.76976L0.743491 0.0687279C0.701405 0.0274913 0.638277 0 0.582166 0C0.519037 0 0.462926 0.0274913 0.420842 0.0687279L0.07014 0.412372C0.0280564 0.453608 0 0.515465 0 0.570447C0 0.62543 0.0280564 0.687286 0.07014 0.728523L3.33867 3.93128C3.38076 3.97251 3.44389 4 3.5 4C3.55611 4 3.61924 3.97251 3.66132 3.93128L6.92986 0.728523C6.97195 0.687286 7 0.62543 7 0.570447Z" fill="#ECF0F7"/>
</svg>
