<svg width="30" height="26" viewBox="0 0 30 26" fill="none" xmlns="http://www.w3.org/2000/svg">
<path d="M26 10.4609V24.0769C26 24.3217 25.8946 24.5565 25.7071 24.7296C25.5196 24.9027 25.2652 25 25 25H19V17.1535C19 16.7863 18.842 16.4341 18.5607 16.1744C18.2794 15.9147 17.8978 15.7688 17.5 15.7688H12.5C12.1022 15.7688 11.7206 15.9147 11.4393 16.1744C11.158 16.4341 11 16.7863 11 17.1535V25H5C4.73478 25 4.48043 24.9027 4.29289 24.7296C4.10536 24.5565 4 24.3217 4 24.0769V10.4609M1 12.9995L14.3194 1.22977C14.6319 0.925143 15.3625 0.921681 15.6806 1.22977L29 12.9995M6 8.557V1.92211H9V5.90304" stroke="#E5E5E5" stroke-linecap="round" stroke-linejoin="round"/>
</svg>
