<svg width="40" height="32" viewBox="0 0 40 32" fill="none" xmlns="http://www.w3.org/2000/svg">
<path fill-rule="evenodd" clip-rule="evenodd" d="M0.00012207 30.2222C0.00012207 29.7507 0.19168 29.2985 0.532656 28.9651C0.873631 28.6317 1.33609 28.4444 1.8183 28.4444H38.1819C38.6642 28.4444 39.1266 28.6317 39.4676 28.9651C39.8086 29.2985 40.0001 29.7507 40.0001 30.2222C40.0001 30.6937 39.8086 31.1459 39.4676 31.4793C39.1266 31.8127 38.6642 32 38.1819 32H1.8183C1.33609 32 0.873631 31.8127 0.532656 31.4793C0.19168 31.1459 0.00012207 30.6937 0.00012207 30.2222ZM0.00012207 16C0.00012207 15.5285 0.19168 15.0763 0.532656 14.7429C0.873631 14.4095 1.33609 14.2222 1.8183 14.2222H38.1819C38.6642 14.2222 39.1266 14.4095 39.4676 14.7429C39.8086 15.0763 40.0001 15.5285 40.0001 16C40.0001 16.4715 39.8086 16.9237 39.4676 17.2571C39.1266 17.5905 38.6642 17.7778 38.1819 17.7778H1.8183C1.33609 17.7778 0.873631 17.5905 0.532656 17.2571C0.19168 16.9237 0.00012207 16.4715 0.00012207 16ZM0.00012207 1.77778C0.00012207 1.30628 0.19168 0.854097 0.532656 0.520699C0.873631 0.187301 1.33609 0 1.8183 0H38.1819C38.6642 0 39.1266 0.187301 39.4676 0.520699C39.8086 0.854097 40.0001 1.30628 40.0001 1.77778C40.0001 2.24927 39.8086 2.70146 39.4676 3.03486C39.1266 3.36825 38.6642 3.55556 38.1819 3.55556H1.8183C1.33609 3.55556 0.873631 3.36825 0.532656 3.03486C0.19168 2.70146 0.00012207 2.24927 0.00012207 1.77778Z" fill="white"/>
</svg>
